<?xml version="1.0" encoding="UTF-8" standalone="no"?>
<svg width="167px" height="36px" viewBox="0 0 167 36" version="1.1" xmlns="http://www.w3.org/2000/svg" xmlns:xlink="http://www.w3.org/1999/xlink">
    <!-- Generator: Sketch 47.1 (45422) - http://www.bohemiancoding.com/sketch -->
    <title>logo</title>
    <desc>Created with Sketch.</desc>
    <defs>
        <linearGradient x1="-3.73658655%" y1="44.5162228%" x2="103.735511%" y2="55.4837302%" id="linearGradient-1">
            <stop stop-color="#DF2027" offset="0%"></stop>
            <stop stop-color="#750D0F" offset="100%"></stop>
        </linearGradient>
        <linearGradient x1="-3.73034171%" y1="55.4765642%" x2="103.730653%" y2="44.522625%" id="linearGradient-2">
            <stop stop-color="#FFC90A" offset="0%"></stop>
            <stop stop-color="#F15D22" offset="100%"></stop>
        </linearGradient>
        <linearGradient x1="-3.78486339%" y1="44.4451187%" x2="103.782657%" y2="55.5531504%" id="linearGradient-3">
            <stop stop-color="#052259" offset="0%"></stop>
            <stop stop-color="#0086C9" offset="100%"></stop>
        </linearGradient>
        <linearGradient x1="-3.73790548%" y1="55.4850549%" x2="103.738855%" y2="44.516456%" id="linearGradient-4">
            <stop stop-color="#185625" offset="0%"></stop>
            <stop stop-color="#B7D433" offset="100%"></stop>
        </linearGradient>
        <linearGradient x1="-3.7278348%" y1="44.5300047%" x2="103.726586%" y2="55.4689992%" id="linearGradient-5">
            <stop stop-color="#052259" offset="0%"></stop>
            <stop stop-color="#0086C9" offset="100%"></stop>
        </linearGradient>
        <linearGradient x1="-3.71649484%" y1="55.4549641%" x2="103.716687%" y2="44.5429847%" id="linearGradient-6">
            <stop stop-color="#185625" offset="0%"></stop>
            <stop stop-color="#B7D433" offset="100%"></stop>
        </linearGradient>
        <linearGradient x1="-3.71838264%" y1="44.5451256%" x2="103.719638%" y2="55.4569845%" id="linearGradient-7">
            <stop stop-color="#750D0F" offset="0%"></stop>
            <stop stop-color="#DF2027" offset="100%"></stop>
        </linearGradient>
        <linearGradient x1="-3.73497037%" y1="55.4837972%" x2="103.737286%" y2="44.5162735%" id="linearGradient-8">
            <stop stop-color="#FFC90A" offset="0%"></stop>
            <stop stop-color="#F15D22" offset="100%"></stop>
        </linearGradient>
    </defs>
    <g id="Article-page" stroke="none" stroke-width="1" fill="none" fill-rule="evenodd">
        <g id="Article-Page-Desktop-HD" transform="translate(-34.000000, -22.000000)">
            <g id="nav">
                <g id="logo" transform="translate(30.000000, 15.000000)">
                    <rect id="Rectangle-1" x="0" y="0" width="175" height="50"></rect>
                    <g id="Logo" transform="translate(4.000000, 7.000000)">
                        <g id="Layer_1">
                            <g id="Group">
                                <g transform="translate(55.000000, 6.000000)" id="Shape">
                                    <g>
                                        <path d="M0.464,1.616 L5.956,1.616 C10.382,1.616 13.44,4.654 13.44,8.617 L13.44,8.657 C13.44,12.62 10.382,15.698 5.956,15.698 L0.464,15.698 L0.464,1.616 L0.464,1.616 Z M3.562,4.412 L3.562,12.902 L5.956,12.902 C8.491,12.902 10.201,11.192 10.201,8.697 L10.201,8.657 C10.201,6.162 8.491,4.412 5.956,4.412 L3.562,4.412 L3.562,4.412 Z" fill="#414042"></path>
                                        <polygon fill="#414042" points="15.69 1.616 26.312 1.616 26.312 4.372 18.768 4.372 18.768 7.229 25.407 7.229 25.407 9.985 18.768 9.985 18.768 12.942 26.413 12.942 26.413 15.698 15.69 15.698"></polygon>
                                        <path d="M27.697,13.245 L29.528,11.052 C30.795,12.099 32.123,12.762 33.733,12.762 C35,12.762 35.765,12.259 35.765,11.434 L35.765,11.394 C35.765,10.609 35.282,10.207 32.928,9.604 C30.091,8.88 28.261,8.095 28.261,5.298 L28.261,5.258 C28.261,2.703 30.313,1.014 33.19,1.014 C35.242,1.014 36.992,1.658 38.42,2.804 L36.811,5.138 C35.564,4.273 34.337,3.75 33.149,3.75 C31.962,3.75 31.338,4.293 31.338,4.977 L31.338,5.018 C31.338,5.943 31.942,6.245 34.376,6.868 C37.233,7.612 38.842,8.639 38.842,11.093 L38.842,11.134 C38.842,13.93 36.71,15.499 33.672,15.499 C31.539,15.498 29.387,14.754 27.697,13.245 L27.697,13.245 Z" fill="#414042"></path>
                                        <polygon fill="#414042" points="41.174 1.214 44.272 1.214 44.272 15.297 41.174 15.297"></polygon>
                                        <path d="M46.665,8.296 L46.665,8.256 C46.665,4.253 49.783,0.974 54.048,0.974 C56.583,0.974 58.112,1.658 59.581,2.905 L57.63,5.258 C56.544,4.353 55.578,3.83 53.948,3.83 C51.695,3.83 49.904,5.822 49.904,8.216 L49.904,8.256 C49.904,10.831 51.674,12.722 54.169,12.722 C55.296,12.722 56.301,12.44 57.086,11.877 L57.086,9.865 L53.968,9.865 L53.968,7.189 L60.084,7.189 L60.084,13.305 C58.636,14.533 56.644,15.538 54.069,15.538 C49.682,15.539 46.665,12.461 46.665,8.296 L46.665,8.296 Z" fill="#414042"></path>
                                        <polygon fill="#414042" points="62.555 1.214 65.412 1.214 72.011 9.885 72.011 1.214 75.069 1.214 75.069 15.297 72.434 15.297 65.614 6.345 65.614 15.297 62.556 15.297 62.556 1.214"></polygon>
                                        <path d="M77.318,8.296 L77.318,8.256 C77.318,4.253 80.476,0.974 84.822,0.974 C89.167,0.974 92.286,4.213 92.286,8.216 L92.286,8.256 C92.286,12.259 89.127,15.539 84.782,15.539 C80.437,15.539 77.318,12.299 77.318,8.296 L77.318,8.296 Z M89.047,8.296 L89.047,8.256 C89.047,5.842 87.276,3.83 84.782,3.83 C82.288,3.83 80.557,5.801 80.557,8.216 L80.557,8.256 C80.557,10.67 82.327,12.682 84.822,12.682 C87.317,12.682 89.047,10.71 89.047,8.296 L89.047,8.296 Z" fill="#6D6E71"></path>
                                        <path d="M94.536,1.214 L100.974,1.214 C102.765,1.214 104.153,1.717 105.078,2.642 C105.863,3.427 106.285,4.533 106.285,5.861 L106.285,5.901 C106.285,8.175 105.058,9.603 103.267,10.267 L106.707,15.297 L103.086,15.297 L100.068,10.791 L97.634,10.791 L97.634,15.297 L94.536,15.297 L94.536,1.214 L94.536,1.214 Z M100.772,8.055 C102.281,8.055 103.146,7.25 103.146,6.063 L103.146,6.023 C103.146,4.695 102.221,4.011 100.712,4.011 L97.634,4.011 L97.634,8.055 L100.772,8.055 L100.772,8.055 Z" fill="#6D6E71"></path>
                                        <polygon fill="#6D6E71" points="108.716 1.214 111.814 1.214 111.814 15.297 108.716 15.297"></polygon>
                                    </g>
                                    <g transform="translate(0.000000, 18.000000)">
                                        <path d="M4.381,4.658 C4.143,4.793 3.896,4.888 3.641,4.943 C3.386,4.999 3.126,5.026 2.861,5.026 C2.55,5.026 2.265,4.973 2.006,4.867 C1.747,4.762 1.525,4.614 1.341,4.424 C1.157,4.234 1.013,4.008 0.909,3.744 C0.805,3.481 0.753,3.194 0.753,2.883 C0.753,2.572 0.805,2.286 0.909,2.025 C1.012,1.764 1.156,1.538 1.341,1.348 C1.525,1.158 1.747,1.009 2.006,0.902 C2.265,0.794 2.55,0.741 2.861,0.741 C3.467,0.741 3.957,0.929 4.329,1.305 L4.053,1.593 C3.992,1.52 3.916,1.452 3.826,1.388 C3.736,1.325 3.638,1.271 3.533,1.227 C3.427,1.183 3.317,1.149 3.202,1.124 C3.087,1.099 2.974,1.086 2.863,1.086 C2.598,1.086 2.359,1.132 2.146,1.224 C1.933,1.316 1.752,1.443 1.602,1.604 C1.452,1.765 1.337,1.955 1.257,2.174 C1.176,2.393 1.136,2.629 1.136,2.882 C1.136,3.135 1.176,3.371 1.257,3.59 C1.338,3.809 1.453,3.999 1.602,4.16 C1.752,4.321 1.933,4.448 2.146,4.54 C2.359,4.632 2.598,4.678 2.863,4.678 C3.082,4.678 3.287,4.661 3.479,4.626 C3.671,4.591 3.845,4.528 4.003,4.436 L4.003,3.066 L3.024,3.066 L3.024,2.721 L4.383,2.721 L4.383,4.658 L4.381,4.658 Z" fill="#939598"></path>
                                        <path d="M7.899,0.847 L8.29,0.847 L10.006,4.923 L9.58,4.923 L9.137,3.841 L6.978,3.841 L6.517,4.923 L6.12,4.923 L7.899,0.847 L7.899,0.847 Z M8.077,1.261 L7.127,3.495 L8.998,3.495 L8.077,1.261 L8.077,1.261 Z" fill="#939598"></path>
                                        <polygon fill="#939598" points="11.704 0.847 12.274 0.847 13.76 4.267 15.245 0.847 15.786 0.847 15.786 4.923 15.406 4.923 15.406 1.33 15.395 1.33 13.841 4.923 13.674 4.923 12.097 1.33 12.085 1.33 12.085 4.923 11.705 4.923 11.705 0.847"></polygon>
                                        <polygon fill="#939598" points="18.014 0.847 20.507 0.847 20.507 1.192 18.394 1.192 18.394 2.643 20.374 2.643 20.374 2.988 18.394 2.988 18.394 4.577 20.599 4.577 20.599 4.922 18.014 4.922"></polygon>
                                        <path d="M22.689,4.168 C22.789,4.341 22.918,4.47 23.078,4.554 C23.237,4.638 23.418,4.681 23.622,4.681 C23.749,4.681 23.868,4.662 23.979,4.623 C24.09,4.585 24.187,4.531 24.27,4.462 C24.352,4.393 24.418,4.309 24.466,4.211 C24.514,4.113 24.538,4.003 24.538,3.88 C24.538,3.739 24.508,3.621 24.449,3.529 C24.39,3.437 24.31,3.361 24.21,3.302 C24.11,3.243 23.998,3.191 23.873,3.149 C23.748,3.107 23.62,3.064 23.487,3.022 C23.354,2.98 23.226,2.932 23.101,2.878 C22.976,2.824 22.864,2.754 22.764,2.668 C22.664,2.581 22.585,2.473 22.525,2.342 C22.465,2.212 22.436,2.05 22.436,1.859 C22.436,1.679 22.472,1.518 22.543,1.378 C22.614,1.238 22.71,1.12 22.831,1.026 C22.952,0.932 23.091,0.861 23.249,0.813 C23.406,0.765 23.571,0.741 23.744,0.741 C23.967,0.741 24.173,0.781 24.363,0.859 C24.553,0.937 24.717,1.069 24.855,1.253 L24.527,1.489 C24.431,1.355 24.319,1.254 24.19,1.187 C24.061,1.12 23.909,1.086 23.732,1.086 C23.609,1.086 23.492,1.102 23.381,1.135 C23.27,1.168 23.173,1.216 23.09,1.279 C23.008,1.343 22.941,1.422 22.891,1.518 C22.841,1.614 22.816,1.727 22.816,1.858 C22.816,2.061 22.868,2.218 22.971,2.327 C23.075,2.436 23.204,2.523 23.36,2.586 C23.515,2.65 23.684,2.705 23.867,2.753 C24.049,2.801 24.218,2.865 24.374,2.946 C24.529,3.026 24.659,3.139 24.763,3.283 C24.867,3.427 24.918,3.625 24.918,3.879 C24.918,4.064 24.883,4.227 24.815,4.368 C24.746,4.51 24.653,4.63 24.536,4.728 C24.419,4.826 24.284,4.9 24.13,4.95 C23.976,4.999 23.817,5.025 23.652,5.025 C23.383,5.025 23.136,4.978 22.909,4.884 C22.683,4.79 22.489,4.632 22.328,4.41 L22.689,4.168 L22.689,4.168 Z" fill="#939598"></path>
                                        <path d="M29.979,3.228 C29.979,2.949 30.077,2.713 30.271,2.52 C30.465,2.325 30.701,2.227 30.979,2.227 C31.257,2.227 31.493,2.325 31.688,2.52 C31.882,2.713 31.979,2.949 31.979,3.228 C31.979,3.505 31.882,3.741 31.688,3.936 C31.493,4.131 31.257,4.227 30.979,4.227 C30.701,4.227 30.465,4.131 30.271,3.936 C30.076,3.741 29.979,3.505 29.979,3.228 L29.979,3.228 Z" fill="#58595B"></path>
                                        <path d="M37.356,0.847 L38.617,0.847 C38.97,0.847 39.27,0.89 39.515,0.976 C39.761,1.062 39.965,1.173 40.128,1.307 C40.291,1.442 40.42,1.59 40.514,1.753 C40.608,1.916 40.677,2.072 40.721,2.223 C40.765,2.373 40.793,2.508 40.804,2.629 C40.816,2.749 40.821,2.835 40.821,2.885 C40.821,2.935 40.815,3.02 40.804,3.141 C40.793,3.262 40.765,3.397 40.721,3.547 C40.677,3.697 40.608,3.853 40.514,4.016 C40.42,4.179 40.292,4.328 40.128,4.463 C39.965,4.597 39.76,4.708 39.515,4.794 C39.269,4.88 38.97,4.924 38.617,4.924 L37.356,4.924 L37.356,0.847 L37.356,0.847 Z M37.736,4.577 L38.519,4.577 C38.787,4.577 39.039,4.544 39.273,4.476 C39.507,4.409 39.71,4.306 39.883,4.168 C40.056,4.03 40.192,3.854 40.292,3.642 C40.392,3.429 40.442,3.176 40.442,2.885 C40.442,2.594 40.392,2.341 40.292,2.128 C40.192,1.915 40.056,1.739 39.883,1.601 C39.71,1.463 39.507,1.361 39.273,1.293 C39.039,1.226 38.787,1.192 38.519,1.192 L37.736,1.192 L37.736,4.577 L37.736,4.577 Z" fill="#939598"></path>
                                        <polygon fill="#939598" points="42.825 0.847 45.318 0.847 45.318 1.192 43.205 1.192 43.205 2.643 45.185 2.643 45.185 2.988 43.205 2.988 43.205 4.577 45.41 4.577 45.41 4.922 42.825 4.922"></polygon>
                                        <path d="M47.5,4.168 C47.6,4.341 47.729,4.47 47.889,4.554 C48.048,4.638 48.229,4.681 48.433,4.681 C48.56,4.681 48.679,4.662 48.79,4.623 C48.901,4.585 48.998,4.531 49.081,4.462 C49.163,4.393 49.229,4.309 49.277,4.211 C49.325,4.113 49.349,4.003 49.349,3.88 C49.349,3.739 49.319,3.621 49.26,3.529 C49.201,3.437 49.121,3.361 49.021,3.302 C48.921,3.243 48.809,3.191 48.684,3.149 C48.559,3.107 48.431,3.064 48.298,3.022 C48.165,2.98 48.037,2.932 47.912,2.878 C47.787,2.824 47.675,2.754 47.575,2.668 C47.475,2.581 47.396,2.473 47.336,2.342 C47.276,2.212 47.247,2.05 47.247,1.859 C47.247,1.679 47.283,1.518 47.354,1.378 C47.425,1.238 47.521,1.12 47.642,1.026 C47.763,0.932 47.902,0.861 48.06,0.813 C48.217,0.765 48.382,0.741 48.555,0.741 C48.778,0.741 48.984,0.781 49.174,0.859 C49.364,0.937 49.528,1.069 49.666,1.253 L49.338,1.489 C49.242,1.355 49.13,1.254 49.001,1.187 C48.872,1.12 48.72,1.086 48.543,1.086 C48.42,1.086 48.303,1.102 48.192,1.135 C48.081,1.168 47.984,1.216 47.901,1.279 C47.819,1.343 47.752,1.422 47.702,1.518 C47.652,1.614 47.627,1.727 47.627,1.858 C47.627,2.061 47.679,2.218 47.782,2.327 C47.886,2.436 48.015,2.523 48.171,2.586 C48.326,2.65 48.495,2.705 48.678,2.753 C48.86,2.801 49.029,2.865 49.185,2.946 C49.34,3.026 49.47,3.139 49.574,3.283 C49.678,3.427 49.729,3.625 49.729,3.879 C49.729,4.064 49.694,4.227 49.626,4.368 C49.557,4.51 49.464,4.63 49.347,4.728 C49.23,4.826 49.095,4.9 48.941,4.95 C48.787,4.999 48.628,5.025 48.463,5.025 C48.194,5.025 47.947,4.978 47.72,4.884 C47.494,4.79 47.3,4.632 47.139,4.41 L47.5,4.168 L47.5,4.168 Z" fill="#939598"></path>
                                        <path d="M57.754,4.658 C57.516,4.793 57.269,4.888 57.014,4.943 C56.759,4.999 56.499,5.026 56.234,5.026 C55.923,5.026 55.638,4.973 55.379,4.867 C55.12,4.762 54.898,4.614 54.714,4.424 C54.53,4.234 54.386,4.008 54.282,3.744 C54.178,3.481 54.126,3.194 54.126,2.883 C54.126,2.572 54.178,2.286 54.282,2.025 C54.385,1.764 54.529,1.538 54.714,1.348 C54.898,1.158 55.12,1.009 55.379,0.902 C55.638,0.794 55.923,0.741 56.234,0.741 C56.84,0.741 57.33,0.929 57.702,1.305 L57.426,1.593 C57.365,1.52 57.289,1.452 57.199,1.388 C57.109,1.325 57.011,1.271 56.906,1.227 C56.8,1.183 56.69,1.149 56.575,1.124 C56.46,1.099 56.347,1.086 56.235,1.086 C55.97,1.086 55.731,1.132 55.518,1.224 C55.305,1.316 55.124,1.443 54.974,1.604 C54.824,1.765 54.709,1.955 54.629,2.174 C54.549,2.393 54.508,2.629 54.508,2.882 C54.508,3.135 54.548,3.371 54.629,3.59 C54.71,3.809 54.825,3.999 54.974,4.16 C55.124,4.321 55.305,4.448 55.518,4.54 C55.731,4.632 55.97,4.678 56.235,4.678 C56.454,4.678 56.659,4.661 56.851,4.626 C57.043,4.591 57.217,4.528 57.375,4.436 L57.375,3.066 L56.396,3.066 L56.396,2.721 L57.755,2.721 L57.755,4.658 L57.754,4.658 Z" fill="#939598"></path>
                                        <polygon fill="#939598" points="60.022 0.847 60.511 0.847 62.992 4.416 63.004 4.416 63.004 0.847 63.384 0.847 63.384 4.923 62.895 4.923 60.414 1.354 60.403 1.354 60.403 4.923 60.023 4.923 60.023 0.847"></polygon>
                                        <path d="M68.699,3.228 C68.699,2.949 68.797,2.713 68.991,2.52 C69.185,2.325 69.421,2.227 69.699,2.227 C69.977,2.227 70.213,2.325 70.408,2.52 C70.602,2.713 70.699,2.949 70.699,3.228 C70.699,3.505 70.602,3.741 70.408,3.936 C70.213,4.131 69.977,4.227 69.699,4.227 C69.421,4.227 69.185,4.131 68.991,3.936 C68.797,3.741 68.699,3.505 68.699,3.228 L68.699,3.228 Z" fill="#59585B"></path>
                                        <polygon fill="#939598" points="76.129 0.847 76.509 0.847 76.509 4.577 78.409 4.577 78.409 4.922 76.129 4.922"></polygon>
                                        <polygon fill="#939598" points="80.159 0.847 82.652 0.847 82.652 1.192 80.539 1.192 80.539 2.643 82.519 2.643 82.519 2.988 80.539 2.988 80.539 4.577 82.744 4.577 82.744 4.922 80.159 4.922"></polygon>
                                        <path d="M85.973,0.847 L86.364,0.847 L88.08,4.923 L87.654,4.923 L87.211,3.841 L85.052,3.841 L84.591,4.923 L84.194,4.923 L85.973,0.847 L85.973,0.847 Z M86.152,1.261 L85.202,3.495 L87.073,3.495 L86.152,1.261 L86.152,1.261 Z" fill="#939598"></path>
                                        <path d="M89.819,0.847 L90.89,0.847 C90.944,0.847 91.017,0.849 91.109,0.853 C91.201,0.857 91.301,0.868 91.409,0.888 C91.516,0.907 91.626,0.938 91.737,0.98 C91.848,1.022 91.948,1.084 92.036,1.164 C92.124,1.245 92.197,1.346 92.255,1.469 C92.313,1.592 92.342,1.741 92.342,1.918 C92.342,2.114 92.308,2.275 92.241,2.402 C92.174,2.529 92.089,2.631 91.988,2.71 C91.886,2.788 91.774,2.847 91.651,2.885 C91.528,2.923 91.411,2.95 91.3,2.966 L92.486,4.923 L92.054,4.923 L90.908,2.989 L90.2,2.989 L90.2,4.923 L89.82,4.923 L89.82,0.847 L89.819,0.847 Z M90.199,2.643 L91.005,2.643 C91.205,2.643 91.367,2.618 91.492,2.568 C91.616,2.518 91.713,2.457 91.783,2.384 C91.852,2.311 91.899,2.232 91.924,2.148 C91.949,2.063 91.961,1.987 91.961,1.918 C91.961,1.849 91.948,1.772 91.924,1.688 C91.899,1.603 91.852,1.525 91.783,1.452 C91.714,1.379 91.617,1.318 91.492,1.268 C91.367,1.218 91.205,1.193 91.005,1.193 L90.199,1.193 L90.199,2.643 L90.199,2.643 Z" fill="#939598"></path>
                                        <polygon fill="#939598" points="94.384 0.847 94.873 0.847 97.354 4.416 97.366 4.416 97.366 0.847 97.746 0.847 97.746 4.923 97.257 4.923 94.776 1.354 94.765 1.354 94.765 4.923 94.385 4.923 94.385 0.847"></polygon>
                                        <polygon fill="#939598" points="102.663 0.847 103.152 0.847 105.633 4.416 105.645 4.416 105.645 0.847 106.025 0.847 106.025 4.923 105.536 4.923 103.055 1.354 103.044 1.354 103.044 4.923 102.664 4.923 102.664 0.847"></polygon>
                                        <path d="M111.656,4.658 C111.418,4.793 111.171,4.888 110.916,4.943 C110.661,4.999 110.401,5.026 110.136,5.026 C109.825,5.026 109.54,4.973 109.281,4.867 C109.022,4.762 108.8,4.614 108.616,4.424 C108.432,4.234 108.288,4.008 108.184,3.744 C108.08,3.481 108.028,3.194 108.028,2.883 C108.028,2.572 108.08,2.286 108.184,2.025 C108.287,1.764 108.431,1.538 108.616,1.348 C108.8,1.158 109.022,1.009 109.281,0.902 C109.54,0.794 109.825,0.741 110.136,0.741 C110.742,0.741 111.232,0.929 111.604,1.305 L111.328,1.593 C111.267,1.52 111.191,1.452 111.101,1.388 C111.011,1.325 110.913,1.271 110.808,1.227 C110.702,1.183 110.592,1.149 110.477,1.124 C110.362,1.099 110.249,1.086 110.138,1.086 C109.873,1.086 109.634,1.132 109.421,1.224 C109.208,1.316 109.027,1.443 108.877,1.604 C108.727,1.765 108.612,1.955 108.532,2.174 C108.451,2.393 108.411,2.629 108.411,2.882 C108.411,3.135 108.451,3.371 108.532,3.59 C108.613,3.809 108.728,3.999 108.877,4.16 C109.027,4.321 109.208,4.448 109.421,4.54 C109.634,4.632 109.873,4.678 110.138,4.678 C110.357,4.678 110.562,4.661 110.754,4.626 C110.946,4.591 111.12,4.528 111.278,4.436 L111.278,3.066 L110.299,3.066 L110.299,2.721 L111.658,2.721 L111.658,4.658 L111.656,4.658 Z" fill="#939598"></path>
                                    </g>
                                </g>
                                <g id="Shape">
                                    <g transform="translate(0.000000, 14.000000)">
                                        <polygon fill="url(#linearGradient-1)" points="14.635 18.489 29.09 4.033 32.451 7.394 17.995 21.849"></polygon>
                                        <polygon fill="url(#linearGradient-2)" points="3.546 0.657 18.007 15.117 14.646 18.478 0.185 4.017"></polygon>
                                    </g>
                                    <g transform="translate(14.000000, 0.000000)">
                                        <polygon fill="url(#linearGradient-3)" points="21.234 3.511 6.814 17.932 3.453 14.571 17.873 0.151"></polygon>
                                        <polygon fill="url(#linearGradient-4)" points="32.322 21.296 17.865 6.841 21.226 3.48 35.682 17.936"></polygon>
                                        <polygon fill="url(#linearGradient-5)" points="14.529 32.385 28.989 17.924 32.35 21.285 17.889 35.746"></polygon>
                                        <polygon fill="url(#linearGradient-6)" points="3.435 14.558 17.906 29.029 14.545 32.389 0.074 17.918"></polygon>
                                    </g>
                                    <g transform="translate(3.000000, 0.000000)">
                                        <polygon fill="url(#linearGradient-7)" points="18.383 3.571 3.915 18.04 0.554 14.679 15.023 0.211"></polygon>
                                        <polygon fill="url(#linearGradient-8)" points="29.463 21.406 15.005 6.949 18.366 3.588 32.823 18.045"></polygon>
                                    </g>
                                </g>
                            </g>
                        </g>
                    </g>
                </g>
            </g>
        </g>
    </g>
</svg>